<?xml version="1.0" standalone="no"?>
<!DOCTYPE svg PUBLIC "-//W3C//DTD SVG 20010904//EN"
 "http://www.w3.org/TR/2001/REC-SVG-20010904/DTD/svg10.dtd">
<svg version="1.0" xmlns="http://www.w3.org/2000/svg"
 width="100.000000pt" height="100.000000pt" viewBox="0 0 100.000000 100.000000"
 preserveAspectRatio="xMidYMid meet">

<g transform="translate(0.000000,100.000000) scale(0.100000,-0.100000)"
fill="#f42223" stroke="none">
<path d="M402 988 c-41 -8 -52 -13 -48 -25 21 -53 19 -62 -16 -76 -32 -13 -33
-13 -52 17 -10 17 -20 33 -21 34 -2 2 -23 -10 -47 -26 -48 -34 -103 -90 -138
-141 -25 -36 -25 -36 26 -66 14 -9 15 -16 7 -40 -10 -31 -26 -36 -70 -21 -19
6 -23 2 -30 -31 -10 -47 -10 -165 0 -216 8 -36 9 -37 49 -35 37 3 42 0 51 -27
8 -24 7 -31 -7 -40 -51 -30 -51 -29 -18 -77 34 -50 111 -122 153 -144 25 -13
27 -12 45 21 10 19 20 35 22 35 11 0 62 -32 62 -40 0 -5 -5 -21 -10 -36 -6
-15 -9 -28 -7 -30 2 -2 36 -8 76 -14 66 -9 195 0 210 16 2 2 -1 20 -6 39 -11
35 -11 36 24 50 20 9 37 14 38 13 1 -2 10 -18 19 -36 l17 -33 31 18 c41 23
138 120 161 161 l18 31 -33 17 c-18 9 -34 18 -36 19 -2 2 4 17 13 35 17 32 27
34 78 14 20 -7 33 63 30 161 -3 84 -15 131 -34 127 -58 -14 -66 -13 -71 5 -3
10 -9 25 -12 34 -5 11 4 20 29 32 l36 17 -18 32 c-24 42 -120 139 -160 161
l-32 18 -17 -33 c-9 -18 -18 -34 -19 -36 -1 -2 -18 5 -37 14 -34 16 -35 18
-25 50 6 19 8 36 5 39 -8 9 -109 25 -147 24 -20 -1 -60 -6 -89 -11z m233 -130
c111 -41 209 -149 235 -259 20 -80 9 -196 -24 -263 -36 -73 -109 -146 -183
-183 -53 -25 -68 -28 -163 -28 -92 0 -112 3 -160 26 -119 57 -199 163 -222
296 -48 281 245 514 517 411z"/>
</g>
</svg>
