<?xml version="1.0" standalone="no"?>
<!DOCTYPE svg PUBLIC "-//W3C//DTD SVG 20010904//EN"
 "http://www.w3.org/TR/2001/REC-SVG-20010904/DTD/svg10.dtd">
<svg version="1.0" xmlns="http://www.w3.org/2000/svg"
 width="100.000000pt" height="100.000000pt" viewBox="0 0 100.000000 100.000000"
 preserveAspectRatio="xMidYMid meet">

<g transform="translate(0.000000,100.000000) scale(0.100000,-0.100000)"
fill="#f42223" stroke="none">
<path d="M294 728 c-4 -7 -7 -76 -6 -154 3 -141 3 -141 -22 -158 -14 -9 -28
-16 -30 -16 -3 0 -7 53 -9 118 l-3 117 -2 -117 -2 -118 -30 0 c-16 0 -30 -2
-30 -5 0 -3 11 -28 25 -56 34 -67 95 -125 164 -158 48 -22 69 -26 151 -26 84
0 102 3 152 28 66 33 146 115 170 176 l16 41 -29 0 -29 0 0 100 0 100 -50 0
-50 0 0 40 c0 39 -1 40 -34 40 -31 0 -34 -3 -40 -40 -5 -32 -10 -40 -28 -40
-11 0 -27 8 -34 18 -16 21 -47 6 -52 -27 -2 -12 -11 -21 -22 -21 -10 0 -20 -7
-24 -15 -3 -8 -15 -15 -26 -15 -18 0 -21 5 -19 38 1 20 2 65 1 100 -2 55 -4
63 -19 60 -16 -3 -19 -21 -23 -158 -7 -204 -23 -205 -30 -1 -3 104 -9 156 -17
158 -6 2 -15 -2 -19 -9z m306 -168 c0 -13 -7 -20 -20 -20 -13 0 -20 7 -20 20
0 13 7 20 20 20 13 0 20 -7 20 -20z m160 -1 c0 -17 -5 -20 -37 -17 -27 2 -39
8 -41 21 -3 14 4 17 37 17 35 0 41 -3 41 -21z m-320 -90 c0 -43 -3 -50 -17
-47 -14 2 -19 15 -21 51 -3 42 -1 47 17 47 18 0 21 -6 21 -51z m145 14 c-12
-66 -24 -73 -25 -15 0 41 3 52 16 52 13 0 15 -7 9 -37z m175 -23 c0 -33 -4
-60 -10 -60 -5 0 -10 5 -10 10 0 6 -6 10 -14 10 -8 0 -17 14 -21 33 -4 17 -9
40 -11 50 -4 14 1 17 30 17 l36 0 0 -60z"/>
</g>
</svg>
